<?xml version="1.0" encoding="UTF-8" standalone="no"?>
<svg
   xmlns:dc="http://purl.org/dc/elements/1.1/"
   xmlns:cc="http://creativecommons.org/ns#"
   xmlns:rdf="http://www.w3.org/1999/02/22-rdf-syntax-ns#"
   xmlns:svg="http://www.w3.org/2000/svg"
   xmlns="http://www.w3.org/2000/svg"
   xmlns:sodipodi="http://sodipodi.sourceforge.net/DTD/sodipodi-0.dtd"
   xmlns:inkscape="http://www.inkscape.org/namespaces/inkscape"
   width="1180pt"
   height="296pt"
   viewBox="0 0 1180 296"
   version="1.1"
   id="svg2"
   inkscape:version="0.91 r13725"
   sodipodi:docname="phobosys_3.svg"
   inkscape:export-filename="/home/belial/Documents/My/Selbststaendig/Firmen/Phobosys/Logo/logo.png"
   inkscape:export-xdpi="12.3151"
   inkscape:export-ydpi="12.3151">
  <metadata
     id="metadata85">
    <rdf:RDF>
      <cc:Work
         rdf:about="">
        <dc:format>image/svg+xml</dc:format>
        <dc:type
           rdf:resource="http://purl.org/dc/dcmitype/StillImage" />
        <dc:title></dc:title>
      </cc:Work>
    </rdf:RDF>
  </metadata>
  <defs
     id="defs83" />
  <sodipodi:namedview
     pagecolor="#ffffff"
     bordercolor="#666666"
     borderopacity="1"
     objecttolerance="10"
     gridtolerance="10"
     guidetolerance="10"
     inkscape:pageopacity="0"
     inkscape:pageshadow="2"
     inkscape:window-width="1920"
     inkscape:window-height="1019"
     id="namedview81"
     showgrid="false"
     inkscape:zoom="0.41837151"
     inkscape:cx="1271.229"
     inkscape:cy="519.82603"
     inkscape:window-x="0"
     inkscape:window-y="0"
     inkscape:window-maximized="1"
     inkscape:current-layer="svg2" />
  <path
     inkscape:connector-curvature="0"
     id="path75"
     d="m 200.76611,42.24063 c -4.53906,-2.23437 -9.23828,-4.19141 -14.07812,-5.84375 L 178.91064,9.35001 c -1.04687,-3.64844 -4.38671,-6.16016 -8.18359,-6.16016 l -45.35156,0 c -3.79688,0 -7.13281,2.51172 -8.1836,6.16016 l -7.77343,27.04687 c -5.60938,1.91406 -11.027348,4.23047 -16.222657,6.91797 L 70.703613,30.86954 c -3.32031,-1.83985 -7.45703,-1.25391 -10.14062,1.42968 l -32.07031,32.06641 c -2.6836,2.6875 -3.26563,6.82422 -1.42969,10.14453 l 13.04687,23.57422 c -1.99218,4.16406 -3.75,8.46094 -5.25781,12.87891 l -27.0468703,7.77343 c -3.6484398,1.05079 -6.1601598,4.38672 -6.1601598,8.1836 l 0,45.35156 c 0,3.79688 2.51172,7.13281 6.1601598,8.18359 l 27.0468703,7.77344 c 1.65234,4.84375 3.60938,9.54297 5.84375,14.08203 l -13.63281,24.63276 c -1.83594,3.3203 -1.25391,7.4571 1.42969,10.1446 l 32.07031,32.0664 c 2.68359,2.6836 6.82031,3.2695 10.14062,1.4297 l 24.632819,-13.6329 c 4.53906,2.2344 9.238278,4.1914 14.082028,5.8438 l 7.77343,27.0469 c 1.05079,3.6484 4.38672,6.1601 8.1836,6.1601 l 45.35156,0 c 3.79688,0 7.13672,-2.5117 8.18359,-6.1601 l 7.77735,-27.0469 c 4.0664,-1.3867 8.03125,-2.9922 11.88672,-4.793 l 26.82422,14.8438 c 0.2539,0.1406 0.51953,0.2422 0.78125,0.3515 l 0,-66.18744 c -17.64844,23.98044 -46.07032,39.54294 -78.12891,39.54294 -53.546878,0 -96.957027,-43.41013 -96.957027,-96.957 0,-53.54688 43.410149,-96.95703 96.957027,-96.95703 32.05859,0 60.48047,15.5625 78.12891,39.54297 l 0,-63.92578 c -0.26172,0.10937 -0.52735,0.21093 -0.78125,0.35156 z m 0,0"
     style="fill:#636363;fill-opacity:1;fill-rule:nonzero;stroke:none" />
  <path
     inkscape:connector-curvature="0"
     id="path77"
     d="m 262.86377,3.18985 -19.24609,0 c -4.66016,0 -8.4336,3.77734 -8.4336,8.43359 l 0,274.51166 c 0,4.6563 3.77344,8.4336 8.4336,8.4336 l 19.24609,0 c 4.65625,0 8.43359,-3.7773 8.43359,-8.4336 l 0,-274.51166 c 0,-4.65625 -3.77734,-8.43359 -8.43359,-8.43359"
     style="fill:#636363;fill-opacity:1;fill-rule:nonzero;stroke:none" />
  <path
     inkscape:connector-curvature="0"
     id="path79"
     d="m 87.117683,149.76016 c 0,33.65235 27.281247,60.9336 60.933587,60.9336 33.65234,0 60.93359,-27.28125 60.93359,-60.9336 0,-33.65234 -27.28125,-60.92969 -60.93359,-60.92969 -33.65234,0 -60.933587,27.27735 -60.933587,60.92969"
     style="fill:#636363;fill-opacity:1;fill-rule:nonzero;stroke:none" />
  <text
     xml:space="preserve"
     style="font-style:normal;font-weight:normal;font-size:32px;line-height:125%;font-family:Sans;letter-spacing:0px;word-spacing:0px;fill:#636363;fill-opacity:1;stroke:none;stroke-width:1px;stroke-linecap:butt;stroke-linejoin:miter;stroke-opacity:1"
     x="296.38727"
     y="216.00043"
     id="text3451"
     sodipodi:linespacing="125%"><tspan
       sodipodi:role="line"
       id="tspan3453"
       x="296.38727"
       y="216.00043"
       style="font-size:184px;fill:#636363;fill-opacity:1">PhoboSys</tspan></text>
  <text
     xml:space="preserve"
     style="font-style:normal;font-weight:normal;font-size:32px;line-height:125%;font-family:Sans;letter-spacing:0px;word-spacing:0px;fill:#636363;fill-opacity:1;stroke:none;stroke-width:1px;stroke-linecap:butt;stroke-linejoin:miter;stroke-opacity:1"
     x="567.91632"
     y="-128.69836"
     id="text3455"
     sodipodi:linespacing="125%"><tspan
       sodipodi:role="line"
       id="tspan3457"
       x="567.91632"
       y="-128.69836"
       style="font-size:95px;fill:#636363;fill-opacity:1" /></text>
</svg>
